<svg width="15" height="15" viewBox="0 0 15 15" fill="none" xmlns="http://www.w3.org/2000/svg">
<path id="Vector" d="M7.08333 0.833496C6.15314 0.833496 5.23205 1.01671 4.37266 1.37268C3.51327 1.72865 2.73241 2.25041 2.07466 2.90816C0.746278 4.23654 0 6.03821 0 7.91683C0 9.79545 0.746278 11.5971 2.07466 12.9255C2.73241 13.5833 3.51327 14.105 4.37266 14.461C5.23205 14.8169 6.15314 15.0002 7.08333 15.0002C8.96195 15.0002 10.7636 14.2539 12.092 12.9255C13.4204 11.5971 14.1667 9.79545 14.1667 7.91683C14.1667 6.98663 13.9835 6.06555 13.6275 5.20616C13.2715 4.34677 12.7498 3.5659 12.092 2.90816C11.4343 2.25041 10.6534 1.72865 9.79401 1.37268C8.93462 1.01671 8.01353 0.833496 7.08333 0.833496ZM10.0583 10.8918L6.375 8.62516V4.37516H7.4375V8.0585L10.625 9.971L10.0583 10.8918Z" fill="#343434"/>
</svg>
