<svg width="28" height="28" viewBox="0 0 28 28" fill="none" xmlns="http://www.w3.org/2000/svg">
<g id="account_circle">
<mask id="mask0_2971_1583" style="mask-type:alpha" maskUnits="userSpaceOnUse" x="0" y="0" width="28" height="28">
<rect id="Bounding box" width="28" height="28" fill="#D9D9D9"/>
</mask>
<g mask="url(#mask0_2971_1583)">
<path id="account_circle_2" d="M6.82516 19.95C7.81683 19.1917 8.92516 18.5938 10.1502 18.1563C11.3752 17.7188 12.6585 17.5 14.0002 17.5C15.3418 17.5 16.6252 17.7188 17.8502 18.1563C19.0752 18.5938 20.1835 19.1917 21.1752 19.95C21.8557 19.1528 22.3856 18.2486 22.7647 17.2375C23.1439 16.2264 23.3335 15.1472 23.3335 14C23.3335 11.4139 22.4245 9.21182 20.6064 7.39376C18.7884 5.57571 16.5863 4.66668 14.0002 4.66668C11.4141 4.66668 9.21197 5.57571 7.39391 7.39376C5.57586 9.21182 4.66683 11.4139 4.66683 14C4.66683 15.1472 4.85641 16.2264 5.23558 17.2375C5.61475 18.2486 6.14461 19.1528 6.82516 19.95ZM14.0002 15.1667C12.8529 15.1667 11.8856 14.7729 11.0981 13.9854C10.3106 13.1979 9.91683 12.2306 9.91683 11.0833C9.91683 9.93612 10.3106 8.96876 11.0981 8.18126C11.8856 7.39376 12.8529 7.00001 14.0002 7.00001C15.1474 7.00001 16.1147 7.39376 16.9022 8.18126C17.6897 8.96876 18.0835 9.93612 18.0835 11.0833C18.0835 12.2306 17.6897 13.1979 16.9022 13.9854C16.1147 14.7729 15.1474 15.1667 14.0002 15.1667ZM14.0002 25.6667C12.3863 25.6667 10.8696 25.3604 9.45016 24.7479C8.03072 24.1354 6.796 23.3042 5.746 22.2542C4.696 21.2042 3.86475 19.9695 3.25225 18.55C2.63975 17.1306 2.3335 15.6139 2.3335 14C2.3335 12.3861 2.63975 10.8695 3.25225 9.45001C3.86475 8.03057 4.696 6.79584 5.746 5.74584C6.796 4.69584 8.03072 3.86459 9.45016 3.25209C10.8696 2.63959 12.3863 2.33334 14.0002 2.33334C15.6141 2.33334 17.1307 2.63959 18.5502 3.25209C19.9696 3.86459 21.2043 4.69584 22.2543 5.74584C23.3043 6.79584 24.1356 8.03057 24.7481 9.45001C25.3606 10.8695 25.6668 12.3861 25.6668 14C25.6668 15.6139 25.3606 17.1306 24.7481 18.55C24.1356 19.9695 23.3043 21.2042 22.2543 22.2542C21.2043 23.3042 19.9696 24.1354 18.5502 24.7479C17.1307 25.3604 15.6141 25.6667 14.0002 25.6667Z" fill="white"/>
</g>
</g>
</svg>
