<svg width="30" height="35" viewBox="0 0 30 35" fill="none" xmlns="http://www.w3.org/2000/svg">
<g id="Group 6617">
<g id="location_on">
<mask id="mask0_2579_1033" style="mask-type:alpha" maskUnits="userSpaceOnUse" x="7" y="0" width="23" height="24">
<rect id="Bounding box" x="7.08209" width="22" height="23.3333" fill="#D9D9D9"/>
</mask>
<g mask="url(#mask0_2579_1033)">
<path id="location_on_2" d="M18.0837 11.5357C18.5397 11.5357 18.9296 11.3634 19.2534 11.0189C19.5773 10.6744 19.7392 10.2604 19.7392 9.77667C19.7392 9.29299 19.5768 8.87939 19.252 8.53587C18.9272 8.19252 18.5367 8.02084 18.0805 8.02084C17.6245 8.02084 17.2346 8.19309 16.9108 8.53758C16.5869 8.88207 16.425 9.29623 16.425 9.78008C16.425 10.2638 16.5874 10.6773 16.9122 11.0206C17.237 11.364 17.6275 11.5357 18.0837 11.5357ZM17.5245 18.3368C17.9001 18.7138 18.5093 18.7145 18.8757 18.3286C20.2692 16.8607 21.1588 15.4294 21.9847 14.072C22.936 12.5083 23.4117 11.1388 23.4117 9.96334C23.4117 8.19098 23.0465 7.1417 21.9847 5.99999C20.9229 4.85828 19.6058 4.28742 18.0334 4.28742C16.461 4.28742 15.1439 4.85828 14.0821 5.99999C13.0203 7.1417 12.6551 8.19098 12.6551 9.96334C12.6551 11.1388 13.1308 12.5083 14.0821 14.072C14.9095 15.4319 16.0592 16.8661 17.5245 18.3368ZM19.5154 19.4209C18.8002 20.1749 17.6102 20.1733 16.8826 19.4313C15.2875 17.8043 14.1328 16.2872 13.2157 14.8347C12.0629 13.0086 11.4321 11.4902 11.4321 9.96333C11.4321 7.71977 11.8473 6.38914 13.2157 5C14.5843 3.61086 16.2064 2.91629 18.0821 2.91629C19.9578 2.91629 21.4636 3.61086 22.8322 5C24.2006 6.38914 24.6777 7.71977 24.6777 9.96333C24.6777 11.4902 24.0526 13.1219 22.8997 14.9481C21.9871 16.3937 21.0224 17.8323 19.5154 19.4209Z" fill="#1C1B1F"/>
</g>
</g>
<path id="Subtract" fill-rule="evenodd" clip-rule="evenodd" d="M15.1215 15.0348L15.7667 15.8678C15.5381 15.5879 15.323 15.3102 15.1215 15.0348ZM23.1546 14.1127C23.9545 12.6932 24.3602 11.3765 24.3718 10.1628C24.6787 10.4106 24.8321 10.7409 24.8321 11.1539V30.9423C24.8321 31.248 24.7456 31.5163 24.5726 31.747C24.3993 31.9778 24.1647 32.146 23.8687 32.2518L17.2315 34.4747C16.8106 34.6157 16.3547 34.6127 15.9356 34.466L8.31873 31.8001C7.84503 31.6343 7.32631 31.6527 6.86552 31.8515L1.79441 34.0401C1.35216 34.2114 0.942531 34.1624 0.565531 33.8931C0.188531 33.6239 3.05176e-05 33.2556 3.05176e-05 32.7884V13.1155C3.05176e-05 12.8193 0.0794058 12.5534 0.238156 12.3179C0.396656 12.0824 0.619281 11.9118 0.906031 11.806L6.9039 9.56155C7.3421 9.39757 7.82393 9.39241 8.26555 9.54698L11.833 10.7956C11.906 11.4176 12.0768 12.0652 12.3453 12.7382L8.73517 11.4184C8.53943 11.3468 8.33216 11.4917 8.33216 11.7001V29.794C8.33216 29.9181 8.40858 30.0294 8.52441 30.074L15.4244 32.7292C15.6209 32.8049 15.8322 32.6598 15.8322 32.4493V17.8744C16.1228 18.1911 16.4291 18.5119 16.7511 18.8367C16.9316 19.0187 17.1396 19.156 17.3617 19.2486L17.3322 19.3155V32.4736C17.3322 32.6773 17.5308 32.8218 17.7246 32.759L23.1246 31.0095C23.2483 30.9694 23.3322 30.8542 23.3322 30.7241V14.5975L23.1546 14.1127ZM2.00034 32.0724C1.80237 32.1573 1.58208 32.0121 1.58208 31.7967V13.3281C1.58208 13.2007 1.66249 13.0873 1.78265 13.0451L6.43272 11.4114C6.62783 11.3428 6.83216 11.4876 6.83216 11.6944V29.8022C6.83216 29.9222 6.76067 30.0307 6.65041 30.0779L2.00034 32.0724Z" fill="#1C1B1F"/>
</g>
</svg>
