<svg width="18" height="18" viewBox="0 0 18 18" fill="none" xmlns="http://www.w3.org/2000/svg">
<g id="ph:star">
<path id="Vector" d="M16.8173 6.8385C16.747 6.6223 16.6143 6.43176 16.4358 6.29087C16.2574 6.14998 16.0413 6.06505 15.8147 6.04678L11.6662 5.71209L10.0645 1.83857C9.9779 1.62751 9.83047 1.44697 9.64097 1.31991C9.45148 1.19284 9.22849 1.125 9.00034 1.125C8.77219 1.125 8.54919 1.19284 8.3597 1.31991C8.17021 1.44697 8.02278 1.62751 7.93616 1.83857L6.33585 5.71139L2.1853 6.04678C1.95831 6.06597 1.74204 6.15173 1.56358 6.2933C1.38511 6.43486 1.2524 6.62595 1.18205 6.84261C1.11171 7.05927 1.10687 7.29188 1.16813 7.51128C1.2294 7.73068 1.35405 7.92712 1.52647 8.076L4.69053 10.8062L3.72655 14.8886C3.67264 15.1104 3.68584 15.3432 3.76447 15.5574C3.84311 15.7717 3.98364 15.9578 4.16822 16.092C4.3528 16.2263 4.57312 16.3027 4.80119 16.3115C5.02926 16.3203 5.25481 16.2611 5.44921 16.1415L8.99999 13.9562L12.5529 16.1415C12.7473 16.2597 12.9724 16.3177 13.1998 16.3083C13.4272 16.2988 13.6466 16.2222 13.8306 16.0883C14.0145 15.9543 14.1548 15.7689 14.2336 15.5554C14.3124 15.342 14.3262 15.1099 14.2734 14.8886L13.3059 10.8055L16.47 8.07529C16.6438 7.92667 16.7696 7.7298 16.8314 7.50963C16.8933 7.28945 16.8884 7.05588 16.8173 6.8385ZM15.7387 7.2231L12.3145 10.1762C12.2364 10.2435 12.1783 10.331 12.1466 10.4291C12.1149 10.5272 12.1107 10.6321 12.1345 10.7324L13.1808 15.148C13.1835 15.1541 13.1837 15.161 13.1815 15.1673C13.1793 15.1736 13.1747 15.1788 13.1688 15.1818C13.1562 15.1916 13.1526 15.1895 13.1421 15.1818L9.2946 12.8158C9.20599 12.7613 9.104 12.7324 8.99999 12.7324C8.89597 12.7324 8.79399 12.7613 8.70538 12.8158L4.85788 15.1832C4.84733 15.1895 4.84452 15.1916 4.83116 15.1832C4.82522 15.1802 4.82068 15.175 4.81845 15.1687C4.81623 15.1624 4.8165 15.1555 4.81921 15.1494L5.86545 10.7338C5.8893 10.6335 5.88512 10.5286 5.85338 10.4305C5.82163 10.3324 5.76354 10.2449 5.68545 10.1776L2.26124 7.22451C2.2528 7.21748 2.24506 7.21115 2.2521 7.18935C2.25913 7.16756 2.26475 7.17037 2.2753 7.16896L6.76967 6.80615C6.87276 6.79731 6.97141 6.76021 7.05477 6.69893C7.13813 6.63765 7.20298 6.55456 7.24217 6.45881L8.97327 2.26748C8.97889 2.25553 8.981 2.2499 8.99788 2.2499C9.01475 2.2499 9.01686 2.25553 9.02249 2.26748L10.7578 6.45881C10.7974 6.5546 10.8626 6.63759 10.9464 6.69864C11.0301 6.75968 11.1291 6.7964 11.2324 6.80475L15.7268 7.16756C15.7373 7.16756 15.7437 7.16756 15.75 7.18795C15.7563 7.20834 15.75 7.21607 15.7387 7.2231Z" fill="#2D2D2D"/>
</g>
</svg>
