<svg width="13" height="14" viewBox="0 0 13 14" fill="none" xmlns="http://www.w3.org/2000/svg">
<path id="Vector" d="M10.4167 13.9999C9.85015 13.9999 9.05431 13.7793 7.8626 13.0624C6.41344 12.1874 5.29254 11.3795 3.85122 9.8317C2.46156 8.33637 1.78531 7.36824 0.83884 5.51384C-0.230397 3.42006 -0.0481273 2.32255 0.15562 1.85348C0.398259 1.29285 0.756412 0.957534 1.21934 0.624718C1.48228 0.439226 1.76054 0.280219 2.05058 0.149712C2.07961 0.136274 2.1066 0.123462 2.13069 0.111899C2.27436 0.0422106 2.49203 -0.0631032 2.76776 0.0493982C2.95177 0.123774 3.11605 0.275963 3.3732 0.549404C3.90056 1.10941 4.62122 2.35661 4.88708 2.96912C5.06557 3.38194 5.1837 3.65444 5.18399 3.96007C5.18399 4.31789 5.01681 4.59383 4.81394 4.89164C4.77592 4.94758 4.73819 5.00102 4.70162 5.0529C4.48074 5.3654 4.43228 5.45571 4.4642 5.61697C4.52892 5.94103 5.01159 6.90573 5.80481 7.75793C6.59803 8.61013 7.46816 9.09701 7.7703 9.16638C7.92645 9.20232 8.01207 9.14794 8.31159 8.90169C8.35455 8.86638 8.39867 8.82982 8.44481 8.79325C8.75421 8.54544 8.99859 8.37012 9.32307 8.37012H9.32482C9.60722 8.37012 9.84898 8.502 10.2495 8.7195C10.7719 9.00326 11.9651 9.7692 12.4884 10.3376C12.7429 10.6139 12.8849 10.7902 12.9542 10.988C13.0587 11.2858 12.9603 11.5192 12.8962 11.6755C12.8855 11.7014 12.8736 11.7299 12.8611 11.7614C12.7389 12.0732 12.5904 12.3721 12.4173 12.6546C12.1088 13.1514 11.7962 13.5361 11.2743 13.7977C11.0064 13.9342 10.7131 14.0033 10.4167 13.9999Z" fill="#343434"/>
</svg>
