<svg width="18" height="18" viewBox="0 0 18 18" fill="none" xmlns="http://www.w3.org/2000/svg">
<g id="system-uicons:location">
<g id="Group">
<path id="Vector" fill-rule="evenodd" clip-rule="evenodd" d="M8.99979 15.8914L9.54065 15.282C10.1544 14.5791 10.7064 13.9123 11.1975 13.278L11.6029 12.7431C13.2958 10.4623 14.1426 8.65197 14.1426 7.31397C14.1426 4.45797 11.8404 2.14282 8.99979 2.14282C6.15922 2.14282 3.85693 4.45797 3.85693 7.31397C3.85693 8.65197 4.70379 10.4623 6.39665 12.7431L6.80208 13.278C7.50274 14.1757 8.23579 15.0469 8.99979 15.8914Z" stroke="black" stroke-linecap="round" stroke-linejoin="round"/>
<path id="Vector_2" d="M8.99979 9.42854C10.1833 9.42854 11.1426 8.46915 11.1426 7.28568C11.1426 6.10221 10.1833 5.14282 8.99979 5.14282C7.81632 5.14282 6.85693 6.10221 6.85693 7.28568C6.85693 8.46915 7.81632 9.42854 8.99979 9.42854Z" stroke="black" stroke-linecap="round" stroke-linejoin="round"/>
</g>
</g>
</svg>
