<svg width="15" height="15" viewBox="0 0 15 15" fill="none" xmlns="http://www.w3.org/2000/svg">
<path id="Vector" fill-rule="evenodd" clip-rule="evenodd" d="M7.08333 15C10.9955 15 14.1667 11.6423 14.1667 7.5C14.1667 3.35775 10.9955 0 7.08333 0C3.17121 0 0 3.35775 0 7.5C0 11.6423 3.17121 15 7.08333 15ZM4.93708 5.06775C4.89035 4.87605 4.77392 4.71169 4.6132 4.61052C4.45247 4.50934 4.26048 4.47957 4.0791 4.52768C3.89772 4.57579 3.74166 4.69789 3.64497 4.86734C3.54827 5.0368 3.51877 5.23986 3.56292 5.43225L3.6975 6H3.54167C3.35381 6 3.17364 6.07902 3.0408 6.21967C2.90796 6.36032 2.83333 6.55109 2.83333 6.75C2.83333 6.94891 2.90796 7.13968 3.0408 7.28033C3.17364 7.42098 3.35381 7.5 3.54167 7.5H4.05167L4.22875 8.25H3.54167C3.35381 8.25 3.17364 8.32902 3.0408 8.46967C2.90796 8.61032 2.83333 8.80109 2.83333 9C2.83333 9.19891 2.90796 9.38968 3.0408 9.53033C3.17364 9.67098 3.35381 9.75 3.54167 9.75H4.58292L4.92079 11.1825C5.10921 11.9828 6.16888 12.0263 6.41538 11.2425L7.08333 9.1215L7.75129 11.2425C7.99779 12.0263 9.05746 11.9828 9.24588 11.1825L9.58446 9.75H10.625C10.8129 9.75 10.993 9.67098 11.1259 9.53033C11.2587 9.38968 11.3333 9.19891 11.3333 9C11.3333 8.80109 11.2587 8.61032 11.1259 8.46967C10.993 8.32902 10.8129 8.25 10.625 8.25H9.93792L10.115 7.5H10.625C10.8129 7.5 10.993 7.42098 11.1259 7.28033C11.2587 7.13968 11.3333 6.94891 11.3333 6.75C11.3333 6.55109 11.2587 6.36032 11.1259 6.21967C10.993 6.07902 10.8129 6 10.625 6H10.4692L10.6038 5.43225C10.6271 5.33645 10.6323 5.2367 10.6191 5.13875C10.6059 5.0408 10.5745 4.94659 10.5268 4.86154C10.479 4.7765 10.4158 4.70229 10.3409 4.64321C10.2659 4.58413 10.1807 4.54133 10.09 4.51729C9.99938 4.49324 9.90514 4.48843 9.81273 4.50312C9.72032 4.51781 9.63157 4.55171 9.55159 4.60288C9.47161 4.65405 9.40198 4.72146 9.34672 4.80125C9.29145 4.88103 9.25164 4.9716 9.22958 5.06775L8.40296 8.5695L7.75554 6.513C7.70863 6.36349 7.61845 6.23343 7.49779 6.14125C7.37713 6.04907 7.23212 5.99946 7.08333 5.99946C6.93455 5.99946 6.78954 6.04907 6.66888 6.14125C6.54822 6.23343 6.45803 6.36349 6.41113 6.513L5.76371 8.5695L4.93708 5.06775Z" fill="#343434"/>
</svg>
